<svg width="16" height="16" viewBox="0 0 16 16" fill="none" xmlns="http://www.w3.org/2000/svg">
<path fill-rule="evenodd" clip-rule="evenodd" d="M8.07777 0C8.29864 0 8.48234 0.157222 8.52043 0.364555L8.52768 0.444444V2.22222C8.52768 2.22785 8.52757 2.23346 8.52736 2.23904C11.399 2.45468 13.6911 4.71883 13.9096 7.55556H15.5501C15.7986 7.55556 16 7.75699 16 8.00547C16 8.22634 15.8408 8.41004 15.631 8.44813L15.5501 8.45538H13.9087C13.6852 11.2874 11.3947 13.5462 8.52616 13.7611L8.52768 13.7778V15.5556C8.52768 15.801 8.32625 16 8.07777 16C7.8569 16 7.6732 15.8428 7.6351 15.6354L7.62786 15.5556V13.7778C7.62786 13.7721 7.62796 13.7665 7.62817 13.761C4.76019 13.5456 2.4703 11.287 2.24681 8.45538H0.449912C0.201433 8.45538 0 8.25395 0 8.00547C0 7.7846 0.159157 7.6009 0.36904 7.5628L0.449912 7.55556H2.24596C2.46444 4.71843 4.75714 2.45405 7.62937 2.23895L7.62786 2.22222V0.444444C7.62786 0.198985 7.82929 0 8.07777 0ZM8.07777 3.11111C10.811 3.11111 13.0268 5.29994 13.0268 8C13.0268 10.7001 10.811 12.8889 8.07777 12.8889C5.34449 12.8889 3.12873 10.7001 3.12873 8C3.12873 5.29994 5.34449 3.11111 8.07777 3.11111ZM8.07777 4.88889C6.33841 4.88889 4.92838 6.28178 4.92838 8C4.92838 9.71822 6.33841 11.1111 8.07777 11.1111C9.81713 11.1111 11.2272 9.71822 11.2272 8C11.2272 6.28178 9.81713 4.88889 8.07777 4.88889ZM8.07777 5.77778C9.32017 5.77778 10.3273 6.7727 10.3273 8C10.3273 9.2273 9.32017 10.2222 8.07777 10.2222C6.83537 10.2222 5.82821 9.2273 5.82821 8C5.82821 6.7727 6.83537 5.77778 8.07777 5.77778Z" fill="url(#paint0_linear_152_173)"/>
<defs>
<linearGradient id="paint0_linear_152_173" x1="-5.25407" y1="5.50934" x2="5.33782" y2="16.4314" gradientUnits="userSpaceOnUse">
<stop stop-color="#FF4D79"/>
<stop offset="1" stop-color="#FF3365"/>
</linearGradient>
</defs>
</svg>
